<mxfile host="65bd71144e">
    <diagram id="PsKzVX4JSOPB249WPPOD" name="Page-1">
        <mxGraphModel dx="1074" dy="741" grid="1" gridSize="10" guides="1" tooltips="1" connect="1" arrows="1" fold="1" page="1" pageScale="1" pageWidth="827" pageHeight="1169" math="0" shadow="0">
            <root>
                <mxCell id="0"/>
                <mxCell id="1" parent="0"/>
                <mxCell id="2" value="" style="rounded=0;whiteSpace=wrap;html=1;" vertex="1" parent="1">
                    <mxGeometry x="200" y="130" width="400" height="300" as="geometry"/>
                </mxCell>
                <mxCell id="3" value="Header" style="rounded=0;whiteSpace=wrap;html=1;" vertex="1" parent="1">
                    <mxGeometry x="200" y="130" width="400" height="40" as="geometry"/>
                </mxCell>
                <mxCell id="5" value="Calculate" style="labelPosition=center;verticalLabelPosition=middle;align=center;html=1;shape=mxgraph.basic.button;dx=10;" vertex="1" parent="1">
                    <mxGeometry x="230" y="350" width="100" height="40" as="geometry"/>
                </mxCell>
                <mxCell id="6" value="" style="line;strokeWidth=4;html=1;perimeter=backbonePerimeter;points=[];outlineConnect=0;" vertex="1" parent="1">
                    <mxGeometry x="240" y="300" width="160" height="10" as="geometry"/>
                </mxCell>
                <mxCell id="10" value="" style="ellipse;shape=doubleEllipse;whiteSpace=wrap;html=1;aspect=fixed;fillColor=#FFFFFF;" vertex="1" parent="1">
                    <mxGeometry x="311.25" y="296.25" width="17.5" height="17.5" as="geometry"/>
                </mxCell>
                <mxCell id="13" value="&lt;p style=&quot;line-height: 0.6&quot;&gt;&lt;font style=&quot;font-size: 16px&quot;&gt;random number&lt;/font&gt;&lt;/p&gt;" style="text;html=1;fontSize=24;fontStyle=1;verticalAlign=middle;align=center;" vertex="1" parent="1">
                    <mxGeometry x="240" y="260" width="98.75" height="25.63" as="geometry"/>
                </mxCell>
            </root>
        </mxGraphModel>
    </diagram>
</mxfile>